name D:\school\WTK\thesis\model\3dpredictsim\Results\batch_windlass\Pog_s1_tmt_aCst_d00_k500_WL30_ig24_pas.mot
datacolumns 128
datarows 4
range 1.12620175 1.15998781
endheader
time	pelvis_tilt	pelvis_list	pelvis_rotation	pelvis_tx	pelvis_ty	pelvis_tz	hip_flexion_l	hip_adduction_l	hip_rotation_l	hip_flexion_r	hip_adduction_r	hip_rotation_r	knee_angle_l	knee_angle_r	ankle_angle_l	ankle_angle_r	subtalar_angle_l	subtalar_angle_r	tmt_angle_l	tmt_angle_r	mtp_angle_l	mtp_angle_r	lumbar_extension	lumbar_bending	lumbar_rotation	arm_flex_l	arm_add_l	arm_rot_l	arm_flex_r	arm_add_r	arm_rot_r	elbow_flex_l	elbow_flex_r	pro_sup_l	pro_sup_r	glut_med1_l/activation	glut_med2_l/activation	glut_med3_l/activation	glut_min1_l/activation	glut_min2_l/activation	glut_min3_l/activation	semimem_l/activation	semiten_l/activation	bifemlh_l/activation	bifemsh_l/activation	sar_l/activation	add_long_l/activation	add_brev_l/activation	add_mag1_l/activation	add_mag2_l/activation	add_mag3_l/activation	tfl_l/activation	pect_l/activation	grac_l/activation	glut_max1_l/activation	glut_max2_l/activation	glut_max3_l/activation	iliacus_l/activation	psoas_l/activation	quad_fem_l/activation	gem_l/activation	peri_l/activation	rect_fem_l/activation	vas_med_l/activation	vas_int_l/activation	vas_lat_l/activation	med_gas_l/activation	lat_gas_l/activation	soleus_l/activation	tib_post_l/activation	flex_dig_l/activation	flex_hal_l/activation	tib_ant_l/activation	per_brev_l/activation	per_long_l/activation	per_tert_l/activation	ext_dig_l/activation	ext_hal_l/activation	ercspn_l/activation	intobl_l/activation	extobl_l/activation	glut_med1_r/activation	glut_med2_r/activation	glut_med3_r/activation	glut_min1_r/activation	glut_min2_r/activation	glut_min3_r/activation	semimem_r/activation	semiten_r/activation	bifemlh_r/activation	bifemsh_r/activation	sar_r/activation	add_long_r/activation	add_brev_r/activation	add_mag1_r/activation	add_mag2_r/activation	add_mag3_r/activation	tfl_r/activation	pect_r/activation	grac_r/activation	glut_max1_r/activation	glut_max2_r/activation	glut_max3_r/activation	iliacus_r/activation	psoas_r/activation	quad_fem_r/activation	gem_r/activation	peri_r/activation	rect_fem_r/activation	vas_med_r/activation	vas_int_r/activation	vas_lat_r/activation	med_gas_r/activation	lat_gas_r/activation	soleus_r/activation	tib_post_r/activation	flex_dig_r/activation	flex_hal_r/activation	tib_ant_r/activation	per_brev_r/activation	per_long_r/activation	per_tert_r/activation	ext_dig_r/activation	ext_hal_r/activation	ercspn_r/activation	intobl_r/activation	extobl_r/activation	
          1.12620175	         -2.92939289	         -2.06542457	          6.28576126	          1.40775219	          0.85745848	         -0.00303188	        -17.81122893	         -1.82537771	          7.51349043	         32.19525473	          2.44094996	         -3.40389590	         -8.92538215	        -15.97039115	          1.62396041	          6.63550751	         12.02895218	         -1.55454376	         -6.89204267	         -0.25682791	         27.22558599	          0.86035687	         -1.50918872	          0.27276908	         -2.18060215	          6.83699248	        -13.46256922	         17.25026163	        -10.27405283	        -13.57722521	          7.20059017	         39.05387720	         15.76879677	         86.51662706	         86.51662706	          0.27552723	          0.08778067	          0.05004313	          0.31419931	          0.19589184	          0.09281709	          0.05002644	          0.05000283	          0.05000204	          0.07184516	          0.09124765	          0.10144090	          0.05000510	          0.05000649	          0.05001371	          0.05002521	          0.28592339	          0.05001587	          0.05000765	          0.05003074	          0.05002399	          0.05002098	          0.37293768	          0.57366369	          0.05000331	          0.05001522	          0.05000415	          0.30119476	          0.05001069	          0.12541168	          0.05001702	          0.28920696	          0.37844749	          0.24582108	          0.22081179	          0.19839261	          0.28204670	          0.05000004	          0.12399735	          0.19087473	          0.05000027	          0.05000007	          0.05000028	          0.05000005	          0.05000094	          0.05000023	          0.06950863	          0.05001479	          0.05938438	          0.05000212	          0.05000279	          0.05001117	          0.06127892	          0.05938598	          0.25214339	          0.05000470	          0.05000204	          0.10019323	          0.16305115	          0.17214039	          0.17158295	          0.12451924	          0.05002539	          0.05002225	          0.05940208	          0.05938568	          0.11133381	          0.08467337	          0.05932761	          0.06538043	          0.23342251	          0.05000141	          0.05000321	          0.05000330	          0.08698050	          0.09789033	          0.07428810	          0.05000056	          0.05000161	          0.05000027	          0.05672867	          0.05938845	          0.05938950	          0.47740175	          0.38251333	          0.22593107	          0.05001727	          0.53993498	          0.22930101	          0.05938460	          0.10507469	          0.11431222	
          1.13746377	         -2.92373926	         -2.13054680	          6.53916402	          1.42518797	          0.85665074	         -0.00281812	        -17.69827406	         -2.12699180	          7.32076165	         31.53613770	          2.82498791	         -3.21014915	        -10.76798610	        -15.50694227	          0.54370767	          6.28604688	         12.99831774	         -2.04259663	         -7.73428814	         -0.32559922	         28.43755141	          1.08118342	         -1.27697332	          0.49337970	         -2.27527605	          6.57193150	        -13.48643953	         17.52314319	        -11.49414443	        -13.55777164	          7.01144603	         40.24552129	         15.72958368	         86.51662706	         86.51662706	          0.23199203	          0.07390819	          0.05000021	          0.26454547	          0.16493403	          0.07814878	          0.05000563	          0.05000058	          0.05000042	          0.06049107	          0.07682894	          0.16110284	          0.16811223	          0.05000620	          0.05000526	          0.05000115	          0.24073791	          0.11815067	          0.05000785	          0.05000446	          0.05000230	          0.05000166	          0.31400445	          0.53870543	          0.05000055	          0.05000152	          0.05000063	          0.25359514	          0.12327847	          0.11033299	          0.10430786	          0.24350164	          0.31863893	          0.20697233	          0.18591564	          0.16704006	          0.23747342	          0.05000182	          0.10440153	          0.16071015	          0.05000292	          0.05000928	          0.05000293	          0.05394944	          0.05000023	          0.05000047	          0.05852630	          0.05001592	          0.05000060	          0.05938536	          0.05938512	          0.05001020	          0.05938565	          0.05000124	          0.24274726	          0.05000064	          0.05000829	          0.09950025	          0.25692091	          0.14493900	          0.14447395	          0.13742710	          0.05000054	          0.07060866	          0.05001614	          0.05000143	          0.16219407	          0.17922840	          0.05938555	          0.05609257	          0.22776054	          0.20932303	          0.15912668	          0.06495716	          0.19484106	          0.18875641	          0.16558469	          0.05000051	          0.05000112	          0.05200959	          0.05000016	          0.05000346	          0.05000454	          0.64725390	          0.33774044	          0.19022659	          0.44158701	          0.61302030	          0.37832431	          0.05000215	          0.08846906	          0.09624672	
          1.14872579	         -2.91302090	         -2.19644672	          6.76084039	          1.44291119	          0.85567620	         -0.00260579	        -17.50144197	         -2.41333878	          7.11258268	         30.75550631	          3.18329892	         -2.95098621	        -12.77755283	        -15.64054729	         -0.63544826	          5.72811624	         13.90958614	         -2.52398754	         -8.44656447	         -0.41911979	         29.21265030	          1.32538136	         -1.02378224	          0.72215815	         -2.35912454	          6.21674740	        -13.51722854	         17.70993096	        -12.70297099	        -13.54249142	          6.89361194	         41.41967454	         15.67185968	         86.51662706	         86.51662706	          0.19532905	          0.06222811	          0.05864154	          0.22273814	          0.13886866	          0.06579867	          0.05001087	          0.05000136	          0.05000372	          0.05093137	          0.06468781	          0.22807273	          0.29371264	          0.18239545	          0.07054245	          0.15807043	          0.20269304	          0.09947990	          0.05000175	          0.05008789	          0.05937181	          0.05938561	          0.26438037	          0.48852961	          0.05937093	          0.05938027	          0.05000270	          0.21351788	          0.12248982	          0.15668008	          0.11816901	          0.20501945	          0.26828232	          0.17426310	          0.15653429	          0.14064215	          0.19994426	          0.11270941	          0.08790292	          0.17239397	          0.05000075	          0.13731330	          0.05000318	          0.06520957	          0.05938573	          0.05938623	          0.05000015	          0.05000056	          0.16494897	          0.05000049	          0.05000051	          0.05000081	          0.05000165	          0.05000949	          0.20438450	          0.05000089	          0.05000143	          0.08377595	          0.21631868	          0.32661841	          0.27470714	          0.16342034	          0.05000358	          0.05945514	          0.12737176	          0.14228718	          0.16421719	          0.15090483	          0.05000077	          0.05000081	          0.32694478	          0.17624251	          0.13397908	          0.05938497	          0.22325268	          0.23538493	          0.19674681	          0.05000294	          0.05938518	          0.05000021	          0.05739401	          0.06393498	          0.05936934	          0.54496544	          0.44625641	          0.22306612	          0.40015808	          0.58346068	          0.31853559	          0.05000004	          0.07448773	          0.08103623	
          1.15998781	         -2.89895013	         -2.26945586	          6.94626072	          1.46074009	          0.85453427	         -0.00240881	        -17.19608369	         -2.67978238	          6.89687785	         29.81588505	          3.48774215	         -2.65899919	        -14.99387213	        -16.04089934	         -1.84762815	          5.36256823	         14.71961563	         -3.03518773	         -8.84438284	         -1.14295819	         29.16971803	          1.40050848	         -0.76590032	          0.96547542	         -2.42897469	          5.79886828	        -13.54795956	         17.81311055	        -13.85505977	        -13.53970001	          6.89274200	         42.56638946	         15.55698985	         86.51662706	         86.51662706	          0.24227757	          0.05239390	          0.05000013	          0.22295460	          0.11692271	          0.05540039	          0.06863137	          0.05000394	          0.05000167	          0.05443355	          0.07004979	          0.19203132	          0.24730061	          0.15357076	          0.05939599	          0.13309010	          0.22844055	          0.08377759	          0.05002541	          0.05000294	          0.05000191	          0.05000228	          0.22259934	          0.46414298	          0.05000027	          0.05000118	          0.05000064	          0.17977427	          0.10313204	          0.13191898	          0.09949405	          0.17261886	          0.22588392	          0.14672314	          0.13179635	          0.11841610	          0.16834621	          0.18753577	          0.16792900	          0.18211544	          0.10777414	          0.23378907	          0.09950554	          0.08528585	          0.05000063	          0.05000113	          0.28816188	          0.30435760	          0.39633072	          0.33829641	          0.21040688	          0.23055024	          0.08876226	          0.11093243	          0.17208475	          0.05000291	          0.05000553	          0.07053649	          0.18213260	          0.27500132	          0.23129478	          0.16591125	          0.05000091	          0.05006536	          0.10724421	          0.24883664	          0.21029781	          0.15579292	          0.05000097	          0.05000077	          0.27527623	          0.14839050	          0.26492711	          0.05000036	          0.18797115	          0.19818661	          0.16565414	          0.05000045	          0.05000073	          0.05000115	          0.05000009	          0.05383246	          0.05001158	          0.65513342	          0.37573256	          0.18781369	          0.65738917	          0.67108853	          0.43215233	          0.05900547	          0.08377140	          0.06822956	
